# xmcd
#
# Track frame offsets: 
#        182
#        10780
#        20755
#        34997
#        46487
#        59300
#        61902
#        74997
#        86907
#        99002
#        109782
#        123692
#        133480
#        146155
#        156460
#        169557
#        181342
#        194752
#        206892
#        216110
#        229017
#        238610
#        250472
#        263602
#        274592
#
# Disc length: 3828 seconds
#
# Revision: 3
# Processed by: cddbd v1.5.2PL0 Copyright (c) Steve Scherf et al.
# Submitted via: ExactAudioCopy v1.3
#
DISCID=870ef219
DTITLE=Freddy Fender - Freddy Fender Collection - 25 Songs
DYEAR=1993
DGENRE=Crossover
TTITLE0=A Man Can Cry
TTITLE1=Before The Next Teardrop Falls
TTITLE2=Wasted Days And Wasted Nights
TTITLE3=She's  About A Mover
TTITLE4=Donna
TTITLE5=What'd I Say
TTITLE6=Silver Wings
TTITLE7=Ooh Poo Pah Doo
TTITLE8=You'll Lose A Good Thing
TTITLE9=Wild Side Of Life
TTITLE10=Baby I Want To Love You
TTITLE11=But I Do
TTITLE12=Almost Persuaded
TTITLE13=Crazy Baby
TTITLE14=Going Out With The Tide
TTITLE15=I'm Leaving It Up To You
TTITLE16=Just Because
TTITLE17=Lovin' Cajun Style
TTITLE18=Mathilda
TTITLE19=Mean Woman Blues
TTITLE20=Running Back
TTITLE21=Sweet Summer Day
TTITLE22=The Girl Who Waits On Tables
TTITLE23=The Rains Came
TTITLE24=Enter My Heart
EXTD=The Collection. COL 013. [Recorded live]. Printed in France.
EXTT0=
EXTT1=
EXTT2=
EXTT3=
EXTT4=
EXTT5=
EXTT6=
EXTT7=
EXTT8=
EXTT9=
EXTT10=
EXTT11=
EXTT12=
EXTT13=
EXTT14=
EXTT15=
EXTT16=
EXTT17=
EXTT18=
EXTT19=
EXTT20=
EXTT21=
EXTT22=
EXTT23=
EXTT24=
PLAYORDER=
